<?xml version="1.0" encoding="utf-8"?>
<svg viewBox="10.826 57.252 474 300" xmlns="http://www.w3.org/2000/svg" xmlns:xlink="http://www.w3.org/1999/xlink">
  <defs>
    <linearGradient gradientUnits="userSpaceOnUse" x1="112.891" y1="59.917" x2="112.891" y2="276.698" id="gradient-0" gradientTransform="matrix(0.590789, -0.244713, 0.244713, 0.590789, 106.023239, 76.685532)">
      <stop offset="0" style="stop-color: rgb(162, 40, 36);"/>
      <stop offset="0.553" style="stop-color: rgb(189, 118, 46);"/>
      <stop offset="1" style="stop-color: rgb(201, 182, 62);"/>
    </linearGradient>
    <linearGradient id="right-rune-0" gradientUnits="userSpaceOnUse" x1="262.453" y1="145.048" x2="262.453" y2="362.348" gradientTransform="matrix(0.718503, -0.297614, 0.297614, 0.718503, 28.813503, 114.358231)" xlink:href="#right-rune"/>
    <linearGradient id="right-rune">
      <stop offset="0" style="stop-color: rgb(186, 218, 85);"/>
      <stop offset="0.5" style="stop-color: rgb(62, 122, 165);"/>
      <stop offset="1" style="stop-color: rgb(112, 74, 135);"/>
    </linearGradient>
    <linearGradient gradientUnits="userSpaceOnUse" x1="112.891" y1="59.917" x2="112.891" y2="276.698" id="gradient-1" gradientTransform="matrix(0.590789, -0.244713, 0.244713, 0.590789, 106.023239, 76.685532)">
      <stop offset="0" style="stop-color: rgb(162, 40, 36);"/>
      <stop offset="0.553" style="stop-color: rgb(189, 118, 46);"/>
      <stop offset="1" style="stop-color: rgb(201, 182, 62);"/>
    </linearGradient>
    <linearGradient id="right-rune-1" gradientUnits="userSpaceOnUse" x1="262.453" y1="145.048" x2="262.453" y2="362.348" gradientTransform="matrix(0.718503, -0.297614, 0.297614, 0.718503, 28.813503, 114.358231)" xlink:href="#right-rune"/>
  </defs>
  <g transform="matrix(1, 0, 0, 1, 0.826465, -49.86964)">
    <g transform="matrix(1.00333, 0, 0, 1.008369, 162.549973, 41.740761)" style="">
      <path style="fill: url(#gradient-0);" d="M 202.065 64.838 C 207.225 103.108 206.005 127.938 203.985 143.138 C 182.255 160.728 147.215 208.668 142.045 214.878 C 136.875 221.088 158.605 229.368 169.985 237.648 C 181.365 245.928 193.785 253.168 202.065 253.168 C 210.345 253.168 227.935 238.678 227.935 231.438 C 227.935 224.198 214.485 210.738 208.275 205.568 C 202.065 200.398 192.755 212.808 191.715 220.058 C 190.685 227.298 167.225 220.058 165.155 215.918 C 163.085 211.778 192.055 180.018 198.265 173.808 C 204.475 167.598 203.865 164.178 214.345 172.458 C 224.825 180.738 239.305 203.498 248.625 212.818 C 257.935 222.128 254.835 234.548 248.625 241.788 C 242.415 249.028 218.035 272.118 211.465 278.008 C 204.525 284.218 197.925 282.148 186.545 273.868 C 175.165 265.588 118.245 238.688 105.835 234.548 C 93.415 230.408 92.385 221.098 105.835 211.778 C 119.285 202.468 162.215 153.668 172.405 133.138 C 182.595 112.608 202.065 64.838 202.065 64.838 Z">
        <title>Left</title>
      </path>
      <path style="fill: url(#right-rune-0);" d="M 256.985 297.678 C 229.045 328.458 217.285 353.808 207.185 362.348 C 205.375 339.068 202.785 321.318 206.175 310.348 C 219.215 295.868 255.695 263.008 267.075 249.558 C 278.455 236.108 282.755 224.208 272.415 210.758 C 262.075 197.308 246.325 181.438 242.565 176.838 C 235.315 167.978 228.265 152.808 227.235 145.048 C 253.455 170.708 295.185 197.818 303.465 204.028 C 311.745 210.238 322.955 219.028 319.855 223.168 C 316.755 227.298 272.885 280.158 256.995 297.668 L 256.985 297.678 Z">
        <title>Right</title>
      </path>
    </g>
    <g transform="matrix(1.00333, 0, 0, 1.008369, -86.450027, 41.740761)" style="">
      <path style="fill: url(#gradient-1);" d="M 202.065 64.838 C 207.225 103.108 206.005 127.938 203.985 143.138 C 182.255 160.728 147.215 208.668 142.045 214.878 C 136.875 221.088 158.605 229.368 169.985 237.648 C 181.365 245.928 193.785 253.168 202.065 253.168 C 210.345 253.168 227.935 238.678 227.935 231.438 C 227.935 224.198 214.485 210.738 208.275 205.568 C 202.065 200.398 192.755 212.808 191.715 220.058 C 190.685 227.298 167.225 220.058 165.155 215.918 C 163.085 211.778 192.055 180.018 198.265 173.808 C 204.475 167.598 203.865 164.178 214.345 172.458 C 224.825 180.738 239.305 203.498 248.625 212.818 C 257.935 222.128 254.835 234.548 248.625 241.788 C 242.415 249.028 218.035 272.118 211.465 278.008 C 204.525 284.218 197.925 282.148 186.545 273.868 C 175.165 265.588 118.245 238.688 105.835 234.548 C 93.415 230.408 92.385 221.098 105.835 211.778 C 119.285 202.468 162.215 153.668 172.405 133.138 C 182.595 112.608 202.065 64.838 202.065 64.838 Z">
        <title>Left</title>
      </path>
      <path style="fill: url(#right-rune-1);" d="M 256.985 297.678 C 229.045 328.458 217.285 353.808 207.185 362.348 C 205.375 339.068 202.785 321.318 206.175 310.348 C 219.215 295.868 255.695 263.008 267.075 249.558 C 278.455 236.108 282.755 224.208 272.415 210.758 C 262.075 197.308 246.325 181.438 242.565 176.838 C 235.315 167.978 228.265 152.808 227.235 145.048 C 253.455 170.708 295.185 197.818 303.465 204.028 C 311.745 210.238 322.955 219.028 319.855 223.168 C 316.755 227.298 272.885 280.158 256.995 297.668 L 256.985 297.678 Z">
        <title>Right</title>
      </path>
    </g>
  </g>
</svg>