<svg xmlns="http://www.w3.org/2000/svg" width="3444" height="2796" viewBox="0 0 3444 2796">
  <defs>
    <style>
      .cls-1 {
        fill-rule: evenodd;
      }
    </style>
  </defs>
  <path id="Preenchimento_de_Cor_1" data-name="Preenchimento de Cor 1" class="cls-1" d="M2426,183h3c23.6,18.772,35.86,55.987,46,88,12.99,40.989,17.86,87.075,26,136q1.5,37.5,3,75c4.79,30.379,2.78,73.616-2,103q-4.005,54.995-8,110l-15,24c-30.83,49.2-67.86,87.442-112,123q-22.005,22.5-44,45c-43.22,34.257-83.45,76.11-118,119-30.43,37.78-67.27,69.85-97,109-31.35,41.28-72.63,70.74-84,133-10.23,56.05,22.02,85.48,44,113,56.64,70.91,133.62,111.02,239,134,32.95,7.19,120.72,18.86,155,3,13.87-6.42,22.33-24.77,31-37,16.52-23.31,42.18-50.5,51-80,10.11-33.84-31.93-89.4-50-101-25.45-16.34-88.66-18.47-122-10l-40,12c-18.53-9.3-29.53-25.71-44-39,1.24-38.33,21.72-78.84,40-103,21.02-27.78,119.32-75.02,166-79,26.68-2.27,88.12,21.49,105,33,55.4,37.77,119.31,159.91,141,233,9.88,33.31-10.9,90.61-18,110-28.22,77.04-71.32,140.32-124,193-18.67,18.67-40,43.53-67,53-25.35,8.89-50.74,14.15-77,19-39.15,7.23-80.6,1.07-118-2-19.64-1.61-39.07.69-58-3-138.24-26.94-237.82-81.33-329-154q-39-39.99-78-80c-58.77-49.18-146.91-157.73-113-269,27.72-90.95,109.62-201.478,176-255l24-27c30.69-24.869,55.35-55.7,86-81q16.005-16.5,32-33c36.19-24.679,62.56-60.112,96-87,37.69-30.308,72.77-67.351,102-106,57.15-75.58,94.6-163.658,125-267q8.505-46,17-92C2420.34,221.968,2416.08,199.334,2426,183ZM883,464h3c23.6,18.772,35.858,55.987,46,88,12.985,40.989,17.857,87.075,26,136q1.5,37.5,3,75c4.791,30.379,2.776,73.616-2,103q-4,54.995-8,110l-15,24c-30.835,49.2-67.863,87.44-112,123q-22,22.5-44,45c-43.224,34.26-83.452,76.11-118,119-30.433,37.78-67.271,69.85-97,109-31.35,41.28-72.632,70.74-84,133-10.234,56.05,22.017,85.48,44,113,56.642,70.91,133.619,111.02,239,134,32.946,7.19,120.722,18.86,155,3,13.867-6.42,22.331-24.77,31-37,16.522-23.31,42.181-50.5,51-80,10.11-33.84-31.934-89.4-50-101-25.449-16.34-88.659-18.47-122-10l-40,12c-18.53-9.3-29.531-25.71-44-39,1.241-38.33,21.72-78.84,40-103,21.017-27.78,119.316-75.02,166-79,26.681-2.27,88.12,21.49,105,33,55.4,37.77,119.31,159.91,141,233,9.88,33.31-10.9,90.61-18,110-28.22,77.04-71.32,140.32-124,193-18.67,18.67-40,43.53-67,53-25.352,8.89-50.738,14.15-77,19-39.15,7.23-80.6,1.07-118-2-19.639-1.61-39.074.69-58-3-138.239-26.94-237.82-81.33-329-154q-39-39.99-78-80c-58.768-49.18-146.908-157.73-113-269,27.716-90.95,109.619-201.48,176-255q12-13.5,24-27c30.692-24.87,55.348-55.7,86-81l32-33c36.189-24.68,62.563-60.11,96-87,37.69-30.308,72.775-67.351,102-106,57.152-75.58,94.6-163.658,125-267l17-92C877.342,502.968,873.085,480.334,883,464ZM2675,847c63.33,0.789,111.5,55.3,149,85a717.393,717.393,0,0,1,114,113l66,69c38.14,47.6,75.03,94.6,111,145,27.98,39.2,99,104.12,76,180-18.03,59.49-62.42,100.77-95,146-38.95,54.08-93.02,91.13-134,142q-64.5,64.995-129,130c-35.75,28.79-72.46,64.27-99,102q-28.5,44.49-57,89c-16.92,25.42-37.67,50.33-51,79-33.61,72.29-70.26,176.45-124,227-50.16.83-42.62-35.78-50-80-8.12-48.7-6.65-107.91-5-161,1.55-49.88-3.51-101.41,6-144,11.9-53.34,40.23-126.13,76-155q32.49-22.995,65-46c49.75-38.63,94.18-86.56,144-125,69.34-53.5,154.82-126.2,186-216q4.005-24.495,8-49c2.09-10.61-1.61-20.51-3-28-10.13-54.48-22.56-90.45-46-129-25.7-42.26-47.3-83.58-75-123q-41.49-50.49-83-101c-19.91-25.16-78.43-79.908-84-112C2647.79,862.506,2656.02,857.053,2675,847ZM1132,1128c63.33,0.79,111.5,55.3,149,85a717.562,717.562,0,0,1,114,113l66,69c38.14,47.6,75.03,94.6,111,145,27.98,39.2,99,104.12,76,180-18.03,59.49-62.42,100.77-95,146-38.95,54.08-93.02,91.13-134,142q-64.5,64.995-129,130c-35.75,28.79-72.46,64.27-99,102q-28.5,44.49-57,89c-16.92,25.42-37.67,50.33-51,79-33.61,72.29-70.26,176.45-124,227-50.164.83-42.624-35.78-50-80-8.124-48.7-6.65-107.91-5-161,1.55-49.88-3.506-101.41,6-144,11.9-53.34,40.232-126.13,76-155q32.49-22.995,65-46c49.75-38.63,94.18-86.56,144-125,69.34-53.5,154.82-126.2,186-216q4.005-24.495,8-49c2.09-10.61-1.61-20.51-3-28-10.13-54.48-22.56-90.45-46-129-25.7-42.26-47.3-83.58-75-123q-41.49-50.49-83-101c-19.91-25.16-78.43-79.91-84-112C1104.79,1143.51,1113.02,1138.05,1132,1128Z"/>
</svg>